<svg width="512" height="512" viewBox="0 0 512 512" xmlns="http://www.w3.org/2000/svg">
  <title>GF-0657 Programación en SIG</title>
  <rect width="512" height="512" rx="96" fill="#14324F"/>
  <circle cx="256" cy="276" r="156" fill="none" stroke="#4B8BBE" stroke-width="12"/>
  <path d="M256,104 V136 M256,416 V448 M84,276 H116 M396,276 H428" stroke="#4B8BBE" stroke-width="12" stroke-linecap="round"/>
  <text x="256" y="84" text-anchor="middle" font-family="Arial, Helvetica, sans-serif" font-weight="bold" font-size="60" fill="#F4F8FB">N</text>
  <path d="M 298,186 C 232,178 182,196 182,250 C 182,302 220,314 254,318 C 290,322 304,340 304,364 C 304,388 288,398 256,398" fill="none" stroke="#FFD43B" stroke-width="27" stroke-linecap="round"/>
  <circle cx="300" cy="188" r="27" fill="#FFD43B"/>
  <circle cx="307" cy="178" r="6.5" fill="#14324F"/>
  <path d="M 328,186 L 352,177 M 328,186 L 350,197" stroke="#FFD43B" stroke-width="8" stroke-linecap="round"/>
</svg>
